<?xml version="1.0" encoding="UTF-8"?><svg id="a" xmlns="http://www.w3.org/2000/svg" viewBox="0 0 86 56.22"><defs><style>.b{fill:#fe3b1f;}</style></defs><path class="b" d="M26.63,19.32c-2.27-1.18-5.08-1.77-8.44-1.77-2.55,0-4.96,.47-7.23,1.42-2.27,.94-4.12,2.32-5.57,4.11-1.44,1.8-2.3,3.97-2.59,6.52h7.09c.38-2.08,1.32-3.63,2.84-4.64,1.51-1.02,3.33-1.52,5.46-1.52,1.84,0,3.37,.35,4.57,1.06s2.11,1.75,2.73,3.12c.61,1.37,.92,3.1,.92,5.18h-9.22c-3.21,0-5.96,.45-8.22,1.35-2.27,.9-4.02,2.19-5.25,3.86-1.23,1.68-1.84,3.67-1.84,5.99,0,1.99,.47,3.82,1.42,5.49,.94,1.68,2.39,3.01,4.32,4.01,1.94,.99,4.37,1.49,7.3,1.49h0c1.56,0,2.95-.18,4.18-.53,1.23-.35,2.33-.84,3.3-1.45,.97-.61,1.82-1.35,2.55-2.2,.73-.85,1.33-1.75,1.81-2.69l.57,6.03h6.17v-22.12c0-2.98-.58-5.54-1.74-7.69-1.16-2.15-2.87-3.82-5.14-5Zm-.28,18.65c-.05,1.47-.31,2.86-.78,4.18-.47,1.32-1.15,2.53-2.02,3.62-.88,1.09-1.93,1.94-3.16,2.55-1.23,.61-2.6,.92-4.11,.92h0c-1.42,0-2.66-.24-3.72-.71s-1.87-1.13-2.41-1.99c-.54-.85-.82-1.84-.82-2.98s.28-2.14,.85-3.01c.57-.87,1.48-1.55,2.73-2.02,1.25-.47,2.92-.71,5-.71h8.44v.14Z"/><path class="b" d="M75.37,45.93c-.81,.97-1.84,1.72-3.08,2.24-1.24,.52-2.59,.78-4.03,.78-1.35,0-2.65-.28-3.9-.85s-2.31-1.37-3.22-2.41c-.91-1.04-1.62-2.37-2.13-3.98-.52-1.61-.78-3.43-.78-5.47,0-2.79,.45-5.12,1.35-6.99,.9-1.87,2.12-3.28,3.66-4.23,1.54-.95,3.21-1.42,5.01-1.42,2.21,0,4.12,.57,5.73,1.7,1.6,1.14,2.63,2.72,3.08,4.76h7.05c-.77-3.83-2.54-6.89-5.32-9.16s-6.27-3.41-10.47-3.41c-3.25,0-6.18,.79-8.77,2.38-2.6,1.59-4.62,3.79-6.06,6.6-1.45,2.82-2.17,6.12-2.17,9.91s.72,6.82,2.17,9.66c1.44,2.84,3.47,5.04,6.06,6.6,2.6,1.56,5.52,2.34,8.77,2.34h0c4.16,0,7.63-1.16,10.43-3.48,2.8-2.32,4.58-5.35,5.35-9.09h-7.05c-.32,1.37-.88,2.55-1.69,3.52Z"/><path class="b" d="M53.79,22.16l1.74-6.18h-9.42v-3.8h0c0-1.71,.39-2.92,1.18-3.63,.78-.71,2.03-1.06,3.74-1.06h3.23l1.56-6.24h-5.9c-2.35,0-4.36,.37-6.02,1.1-1.67,.73-2.94,1.91-3.82,3.52-.88,1.62-1.32,3.7-1.32,6.24l.09,3.83h-3.88v6.13l3.98-.03-.19,32.06h7.34V17.91l2.93,4.26h4.75Z"/></svg>